<?xml version="1.0" encoding="UTF-8" standalone="no"?>
<!-- Created with Inkscape (http://www.inkscape.org/) -->

<svg
   xmlns:dc="http://purl.org/dc/elements/1.1/"
   xmlns:cc="http://creativecommons.org/ns#"
   xmlns:rdf="http://www.w3.org/1999/02/22-rdf-syntax-ns#"
   xmlns:svg="http://www.w3.org/2000/svg"
   xmlns="http://www.w3.org/2000/svg"
   xmlns:sodipodi="http://sodipodi.sourceforge.net/DTD/sodipodi-0.dtd"
   xmlns:inkscape="http://www.inkscape.org/namespaces/inkscape"
   width="210mm"
   height="297mm"
   viewBox="0 0 744.09448819 1052.3622047"
   id="svg2"
   version="1.1"
   inkscape:version="0.91 r13725"
   sodipodi:docname="artwork.svg">
  <defs
     id="defs4" />
  <sodipodi:namedview
     id="base"
     pagecolor="#ffffff"
     bordercolor="#666666"
     borderopacity="1.0"
     inkscape:pageopacity="0.0"
     inkscape:pageshadow="2"
     inkscape:zoom="0.65393235"
     inkscape:cx="349.45069"
     inkscape:cy="346.50738"
     inkscape:document-units="px"
     inkscape:current-layer="layer2"
     showgrid="false"
     inkscape:window-width="1920"
     inkscape:window-height="1054"
     inkscape:window-x="0"
     inkscape:window-y="0"
     inkscape:window-maximized="1"
     inkscape:snap-bbox="true"
     inkscape:snap-smooth-nodes="true"
     inkscape:object-nodes="true"
     inkscape:snap-bbox-midpoints="true"
     inkscape:snap-object-midpoints="true"
     inkscape:object-paths="true"
     inkscape:snap-global="true"
     showguides="true"
     inkscape:guide-bbox="true"
     inkscape:bbox-paths="true"
     inkscape:snap-intersection-paths="true"
     inkscape:snap-center="true" />
  <metadata
     id="metadata7">
    <rdf:RDF>
      <cc:Work
         rdf:about="">
        <dc:format>image/svg+xml</dc:format>
        <dc:type
           rdf:resource="http://purl.org/dc/dcmitype/StillImage" />
        <dc:title></dc:title>
      </cc:Work>
    </rdf:RDF>
  </metadata>
  <g
     inkscape:groupmode="layer"
     id="layer2"
     inkscape:label="bg"
     style="display:inline">
    <rect
       style="opacity:1;fill:#000000;fill-opacity:1;stroke:none;stroke-width:23.37506294;stroke-linejoin:round;stroke-miterlimit:4;stroke-dasharray:none"
       id="rect5019"
       width="759.37567"
       height="1083.0699"
       x="1.442627"
       y="4.3943181" />
  </g>
  <g
     inkscape:label="Layer 1"
     inkscape:groupmode="layer"
     id="layer1">
    <g
       id="g4197"
       transform="translate(88.577084,19.879732)">
      <text
         sodipodi:linespacing="125%"
         id="text5805-9"
         y="567.66583"
         x="191.14803"
         style="font-style:normal;font-variant:normal;font-weight:500;font-stretch:normal;font-size:30.95401382px;line-height:125%;font-family:Inconsolata;-inkscape-font-specification:'Inconsolata Medium';letter-spacing:0px;word-spacing:0px;fill:#00ff00;fill-opacity:1;stroke:none;stroke-width:1px;stroke-linecap:butt;stroke-linejoin:miter;stroke-opacity:1"
         xml:space="preserve"><tspan
           id="tspan3859"
           y="567.66583"
           x="191.14803"
           sodipodi:role="line">lib.ufojs.org</tspan></text>
      <g
         transform="matrix(0.38692517,0,0,0.38692517,-1520.2265,750.97531)"
         id="g4003">
        <path
           style="display:inline;opacity:1;fill:none;fill-opacity:1;stroke:#00ff00;stroke-width:10.10000038;stroke-miterlimit:4;stroke-dasharray:none"
           d="m 4670.3715,-1444.7194 c -2e-4,63.2654 51.2868,114.5522 114.5523,114.5523 63.2652,-1e-4 114.5516,-51.2869 114.552,-114.5521"
           id="path4488-1-3-7-3"
           inkscape:connector-curvature="0"
           sodipodi:nodetypes="csc" />
        <path
           style="display:inline;fill:none;fill-rule:evenodd;stroke:#00ff00;stroke-width:10.10000038;stroke-linecap:butt;stroke-linejoin:miter;stroke-miterlimit:4;stroke-dasharray:none;stroke-opacity:1"
           d="m 4606.8182,-1080.6825 127.1629,-127.1631"
           id="path4441-5-4-2-9"
           inkscape:connector-curvature="0"
           sodipodi:nodetypes="cc" />
        <path
           style="display:inline;opacity:1;fill:none;fill-opacity:1;stroke:#00ff00;stroke-width:10.10000038;stroke-miterlimit:4;stroke-dasharray:none"
           d="m 4899.4761,-1215.6148 c 2e-4,-63.2654 -51.2868,-114.5522 -114.5523,-114.5523 -63.2652,10e-5 -114.5516,51.2868 -114.552,114.5521 l 0.2788,351.19552 c 0,38.10929 -30.8935,69.00279 -69.0028,69.00279 -38.1091,0 -69.0026,-30.8936 -69.0026,-69.00269 0,-38.1092 30.8936,-69.0027 69.0027,-69.0027"
           id="path4488-1-3-7-2"
           inkscape:connector-curvature="0"
           sodipodi:nodetypes="csccscc" />
        <circle
           style="display:inline;opacity:1;fill:none;fill-opacity:1;stroke:#00ff00;stroke-width:10.10000038;stroke-miterlimit:4;stroke-dasharray:none"
           id="path3357-0-1-7-6-5"
           cx="4670.5874"
           cy="-795.35406"
           r="208.98822" />
        <path
           style="display:inline;fill:none;fill-rule:evenodd;stroke:#00ff00;stroke-width:10.10000038;stroke-linecap:butt;stroke-linejoin:round;stroke-miterlimit:4;stroke-dasharray:none;stroke-opacity:1"
           d="m 4779.3303,-973.17649 -108.7424,108.82001 c 38.109,-10e-5 69.0026,30.89349 69.0026,69.00259 0,38.1091 -30.8936,69.0026 -69.0027,69.0027 -38.1091,0 -69.0027,-30.8936 -69.0026,-69.0027"
           id="path4190-8-0-7"
           inkscape:connector-curvature="0"
           sodipodi:nodetypes="ccscc" />
        <path
           style="display:inline;opacity:1;fill:none;fill-opacity:1;stroke:#00ff00;stroke-width:10.10000038;stroke-miterlimit:4;stroke-dasharray:none"
           d="m 4899.4758,-1522.6516 0,77.9324"
           id="path5089"
           inkscape:connector-curvature="0" />
        <path
           style="display:inline;opacity:1;fill:none;fill-opacity:1;stroke:#00ff00;stroke-width:10.10000038;stroke-miterlimit:4;stroke-dasharray:none"
           d="m 4670.3715,-1444.7194 0,-77.9322"
           id="path4488-1-2-6-9-4"
           inkscape:connector-curvature="0" />
        <path
           style="display:inline;opacity:1;fill:#00ff00;fill-opacity:1;stroke:none;stroke-width:10.10000038;stroke-miterlimit:4;stroke-dasharray:none"
           d="m 4662.4676,-806.95095 c 6.4047,-4.48475 15.232,-2.92806 19.7172,3.47656 4.4841,6.40522 2.9279,15.23281 -3.4767,19.7172 -6.4042,4.48483 -15.2331,2.92779 -19.7174,-3.47663 -4.4843,-6.40503 -2.9278,-15.23236 3.4769,-19.71713 z"
           id="path3357-5-7-7-9-7-1-0-6-5-1-2-1-5-5"
           inkscape:connector-curvature="0"
           sodipodi:nodetypes="sssss" />
        <path
           style="display:inline;opacity:1;fill:#00ff00;fill-opacity:1;stroke:none;stroke-width:10.10000038;stroke-miterlimit:4;stroke-dasharray:none"
           d="m 4593.5278,-945.01894 c 6.4047,-4.48475 15.232,-2.92806 19.7172,3.47656 4.4841,6.40522 2.9279,15.23281 -3.4767,19.7172 -6.4042,4.48483 -15.2331,2.92779 -19.7174,-3.47663 -4.4843,-6.40503 -2.9278,-15.23236 3.4769,-19.71713 z"
           id="path3357-5-7-7-9-7-1-0-6-5-1-2-1-5-5-1"
           inkscape:connector-curvature="0"
           sodipodi:nodetypes="sssss" />
        <path
           style="display:inline;opacity:1;fill:#00ff00;fill-opacity:1;stroke:none;stroke-width:10.10000038;stroke-miterlimit:4;stroke-dasharray:none"
           d="m 4771.2101,-984.77336 c 6.4047,-4.48475 15.232,-2.92806 19.7172,3.47656 4.4841,6.40522 2.9279,15.23281 -3.4767,19.7172 -6.4042,4.48483 -15.2331,2.92779 -19.7174,-3.47663 -4.4843,-6.40503 -2.9278,-15.23236 3.4769,-19.71713 z"
           id="path3357-5-7-7-9-7-1-0-6-5-1-2-1-5-5-8"
           inkscape:connector-curvature="0"
           sodipodi:nodetypes="sssss" />
        <path
           style="display:inline;opacity:1;fill:#00ff00;fill-opacity:1;stroke:none;stroke-width:10.10000038;stroke-miterlimit:4;stroke-dasharray:none"
           d="m 4725.861,-1219.4424 c 6.4047,-4.4848 15.232,-2.9281 19.7172,3.4765 4.4841,6.4052 2.9279,15.2328 -3.4767,19.7172 -6.4042,4.4849 -15.2331,2.9278 -19.7174,-3.4766 -4.4843,-6.405 -2.9278,-15.2324 3.4769,-19.7171 z"
           id="path3357-5-7-7-9-7-1-0-6-5-1-2-1-5-5-82"
           inkscape:connector-curvature="0"
           sodipodi:nodetypes="sssss" />
        <path
           style="display:inline;opacity:1;fill:#00ff00;fill-opacity:1;stroke:none;stroke-width:10.10000038;stroke-miterlimit:4;stroke-dasharray:none"
           d="m 4598.6981,-1092.2793 c 6.4047,-4.4848 15.232,-2.9281 19.7172,3.4765 4.4841,6.4052 2.9279,15.2328 -3.4767,19.7172 -6.4042,4.4848 -15.2331,2.9278 -19.7174,-3.4766 -4.4843,-6.405 -2.9278,-15.2324 3.4769,-19.7171 z"
           id="path3357-5-7-7-9-7-1-0-6-5-1-2-1-5-5-4"
           inkscape:connector-curvature="0"
           sodipodi:nodetypes="sssss" />
        <path
           style="display:inline;opacity:1;fill:#00ff00;fill-opacity:1;stroke:none;stroke-width:10.10000038;stroke-miterlimit:4;stroke-dasharray:none"
           d="m 4891.356,-1227.2117 c 6.4047,-4.4847 15.232,-2.928 19.7172,3.4766 4.4841,6.4052 2.9279,15.2328 -3.4767,19.7172 -6.4042,4.4848 -15.2331,2.9278 -19.7174,-3.4766 -4.4843,-6.4051 -2.9278,-15.2324 3.4769,-19.7172 z"
           id="path3357-5-7-7-9-7-1-0-6-5-1-2-1-5-5-2"
           inkscape:connector-curvature="0"
           sodipodi:nodetypes="sssss" />
        <path
           style="display:inline;opacity:1;fill:#00ff00;fill-opacity:1;stroke:none;stroke-width:10.10000038;stroke-miterlimit:4;stroke-dasharray:none"
           d="m 4891.3557,-1534.2485 c 6.4047,-4.4848 15.232,-2.9281 19.7172,3.4766 4.4841,6.4052 2.9279,15.2328 -3.4767,19.7172 -6.4042,4.4848 -15.2331,2.9277 -19.7174,-3.4767 -4.4843,-6.405 -2.9278,-15.2323 3.4769,-19.7171 z"
           id="path3357-5-7-7-9-7-1-0-6-5-1-2-1-5-5-23"
           inkscape:connector-curvature="0"
           sodipodi:nodetypes="sssss" />
        <path
           style="display:inline;opacity:1;fill:#00ff00;fill-opacity:1;stroke:none;stroke-width:10.10000038;stroke-miterlimit:4;stroke-dasharray:none"
           d="m 4662.2514,-1534.2485 c 6.4047,-4.4848 15.232,-2.9281 19.7172,3.4766 4.4841,6.4052 2.9279,15.2328 -3.4767,19.7172 -6.4042,4.4848 -15.2331,2.9277 -19.7174,-3.4767 -4.4843,-6.405 -2.9278,-15.2323 3.4769,-19.7171 z"
           id="path3357-5-7-7-9-7-1-0-6-5-1-2-1-5-5-45"
           inkscape:connector-curvature="0"
           sodipodi:nodetypes="sssss" />
        <path
           style="display:inline;opacity:1;fill:#00ff00;fill-opacity:1;stroke:none;stroke-width:10.10000038;stroke-miterlimit:4;stroke-dasharray:none"
           d="m 4662.4194,-1015.9389 c 6.4047,-4.4847 15.232,-2.928 19.7172,3.4766 4.4841,6.4052 2.9279,15.2328 -3.4767,19.71719 -6.4042,4.48483 -15.2331,2.92779 -19.7174,-3.47663 -4.4843,-6.40506 -2.9278,-15.23236 3.4769,-19.71716 z"
           id="path3357-5-7-7-9-7-1-0-6-5-1-2-1-5-5-81"
           inkscape:connector-curvature="0"
           sodipodi:nodetypes="sssss" />
        <path
           style="display:inline;opacity:1;fill:#00ff00;fill-opacity:1;stroke:none;stroke-width:10.10000038;stroke-miterlimit:4;stroke-dasharray:none"
           d="m 4593.5277,-807.01355 c 6.4047,-4.48475 15.232,-2.92806 19.7172,3.47656 4.4841,6.40522 2.9279,15.23281 -3.4767,19.7172 -6.4042,4.48483 -15.2331,2.92779 -19.7174,-3.47663 -4.4843,-6.40503 -2.9278,-15.23236 3.4769,-19.71713 z"
           id="path3357-5-7-7-9-7-1-0-6-5-1-2-1-5-5-1-1"
           inkscape:connector-curvature="0"
           sodipodi:nodetypes="sssss" />
      </g>
    </g>
    <g
       id="g4175"
       transform="translate(88.577066,-103.98629)">
      <text
         sodipodi:linespacing="125%"
         id="text5805-9-1"
         y="1019.8938"
         x="191.14803"
         style="font-style:normal;font-variant:normal;font-weight:500;font-stretch:normal;font-size:30.95401382px;line-height:125%;font-family:Inconsolata;-inkscape-font-specification:'Inconsolata, Medium';text-align:start;letter-spacing:0px;word-spacing:0px;writing-mode:lr-tb;text-anchor:start;fill:#00ff00;fill-opacity:1;stroke:none;stroke-width:1px;stroke-linecap:butt;stroke-linejoin:miter;stroke-opacity:1"
         xml:space="preserve"><tspan
           style="font-style:normal;font-variant:normal;font-weight:500;font-stretch:normal;font-size:30.95401382px;line-height:125%;font-family:Inconsolata;-inkscape-font-specification:'Inconsolata, Medium';text-align:start;writing-mode:lr-tb;text-anchor:start"
           y="1019.8938"
           x="191.14803"
           id="tspan5807-0-8"
           sodipodi:role="line">lib.ufojs.org</tspan></text>
      <g
         transform="matrix(0.38692517,0,0,0.38692517,-1513.4537,750.97531)"
         id="g3965">
        <path
           style="opacity:1;fill:#00ff00;fill-opacity:1;stroke:none;stroke-width:10.10000038;stroke-miterlimit:4;stroke-dasharray:none"
           d="m 4667.4625,417.6321 c 6.4047,-4.4847 15.232,-2.928 19.7172,3.4766 4.4841,6.4052 2.9279,15.2328 -3.4767,19.7172 -6.4042,4.4848 -15.2331,2.9278 -19.7174,-3.4766 -4.4843,-6.4051 -2.9278,-15.2324 3.4769,-19.7172 z"
           id="path3357-5-7-7-9-7-1-0-6-5-1-2-1-37-3-5"
           inkscape:connector-curvature="0"
           sodipodi:nodetypes="sssss" />
        <path
           style="fill:none;fill-rule:evenodd;stroke:#00ff00;stroke-width:10.10000134;stroke-linecap:butt;stroke-linejoin:miter;stroke-miterlimit:4;stroke-dasharray:none;stroke-opacity:1"
           d="m 4958.9057,294.0661 0.208,221.4768 c 2e-4,31.696 -25.6939,57.3901 -57.39,57.3906 -31.6961,10e-5 -57.3911,-25.6951 -57.3908,-57.391 3e-4,-31.6962 25.6945,-57.3904 57.3901,-57.3904"
           id="path4190-9-0-2-1-6"
           inkscape:connector-curvature="0"
           sodipodi:nodetypes="ccscc" />
        <circle
           style="opacity:1;fill:none;fill-opacity:1;stroke:#00ff00;stroke-width:10.10000134;stroke-miterlimit:4;stroke-dasharray:none"
           id="path3357-0-1-7-4-9"
           cx="429.22906"
           cy="-4675.5825"
           r="143.7045"
           transform="matrix(2.2827412e-8,1,-1,2.2827412e-8,0,0)" />
        <path
           style="opacity:1;fill:none;fill-opacity:1;stroke:#00ff00;stroke-width:10.10000134;stroke-miterlimit:4;stroke-dasharray:none"
           d="m 4498.4031,355.369 c 4e-4,-38.5997 -31.2904,-69.8905 -69.8897,-69.8905 -38.5998,-6e-4 -69.8903,31.2907 -69.8903,69.8901 l 0.064,209.0233"
           id="path4488-1-3-4-8"
           inkscape:connector-curvature="0"
           sodipodi:nodetypes="cscc" />
        <path
           style="opacity:1;fill:none;fill-opacity:1;stroke:#00ff00;stroke-width:10.10000134;stroke-miterlimit:4;stroke-dasharray:none"
           d="m 4249.1855,294.0661 0.064,208.9773 c 0,38.5993 -31.2905,69.8901 -69.8903,69.8901 -38.5993,0 -69.8902,-31.2908 -69.8898,-69.8905 l 0,-208.9769"
           id="path4488-1-3-4-8-5"
           inkscape:connector-curvature="0"
           sodipodi:nodetypes="ccscc" />
        <path
           style="fill:none;fill-rule:evenodd;stroke:#00ff00;stroke-width:10.10000038;stroke-linecap:butt;stroke-linejoin:bevel;stroke-miterlimit:4;stroke-dasharray:none;stroke-opacity:1"
           d="m 5225.7422,294.0295 -163.732,163.732 c 31.6959,-2e-4 57.3906,25.6946 57.3906,57.3906 0,31.6959 -25.6947,57.3905 -57.3907,57.3906 -31.6959,0 -57.3906,-25.6947 -57.3905,-57.3906"
           id="path5943"
           inkscape:connector-curvature="0"
           sodipodi:nodetypes="ccscc" />
        <path
           style="opacity:1;fill:#00ff00;fill-opacity:1;stroke:none;stroke-width:10.10000038;stroke-miterlimit:4;stroke-dasharray:none"
           d="m 4101.3493,282.4692 c 6.4047,-4.4847 15.232,-2.928 19.7172,3.4766 4.4841,6.4052 2.9279,15.2328 -3.4767,19.7172 -6.4042,4.4848 -15.2331,2.9278 -19.7174,-3.4766 -4.4843,-6.4051 -2.9278,-15.2324 3.4769,-19.7172 z"
           id="path3357-5-7-7-9-7-1-0-6-5-1-2-1-37-3"
           inkscape:connector-curvature="0"
           sodipodi:nodetypes="sssss" />
        <path
           style="opacity:1;fill:#00ff00;fill-opacity:1;stroke:none;stroke-width:10.10000038;stroke-miterlimit:4;stroke-dasharray:none"
           d="m 4241.0654,282.4692 c 6.4047,-4.4847 15.232,-2.928 19.7172,3.4766 4.4841,6.4052 2.9279,15.2328 -3.4767,19.7172 -6.4042,4.4848 -15.2331,2.9278 -19.7174,-3.4766 -4.4843,-6.4051 -2.9278,-15.2324 3.4769,-19.7172 z"
           id="path3357-5-7-7-9-7-1-0-6-5-1-2-1-37-3-9"
           inkscape:connector-curvature="0"
           sodipodi:nodetypes="sssss" />
        <path
           style="opacity:1;fill:#00ff00;fill-opacity:1;stroke:none;stroke-width:10.10000038;stroke-miterlimit:4;stroke-dasharray:none"
           d="m 4347.6677,554.4697 c 6.4047,-4.4847 15.232,-2.928 19.7172,3.4766 4.4841,6.4052 2.9279,15.2328 -3.4767,19.7172 -6.4042,4.4848 -15.2331,2.9278 -19.7174,-3.4766 -4.4843,-6.4051 -2.9278,-15.2324 3.4769,-19.7172 z"
           id="path3357-5-7-7-9-7-1-0-6-5-1-2-1-37-3-3"
           inkscape:connector-curvature="0"
           sodipodi:nodetypes="sssss" />
        <path
           style="opacity:1;fill:#00ff00;fill-opacity:1;stroke:none;stroke-width:10.10000038;stroke-miterlimit:4;stroke-dasharray:none"
           d="m 4490.283,343.7721 c 6.4047,-4.4847 15.232,-2.928 19.7172,3.4766 4.4841,6.4052 2.9279,15.2328 -3.4767,19.7172 -6.4042,4.4848 -15.2331,2.9278 -19.7174,-3.4766 -4.4843,-6.4051 -2.9278,-15.2324 3.4769,-19.7172 z"
           id="path3357-5-7-7-9-7-1-0-6-5-1-2-1-37-3-0"
           inkscape:connector-curvature="0"
           sodipodi:nodetypes="sssss" />
        <path
           style="opacity:1;fill:#00ff00;fill-opacity:1;stroke:none;stroke-width:10.10000038;stroke-miterlimit:4;stroke-dasharray:none"
           d="m 4893.6029,446.5552 c 6.4047,-4.4847 15.232,-2.928 19.7172,3.4766 4.4841,6.4052 2.9279,15.2328 -3.4767,19.7172 -6.4042,4.4848 -15.2331,2.9278 -19.7174,-3.4766 -4.4843,-6.4051 -2.9278,-15.2324 3.4769,-19.7172 z"
           id="path3357-5-7-7-9-7-1-0-6-5-1-2-1-37-3-91"
           inkscape:connector-curvature="0"
           sodipodi:nodetypes="sssss" />
        <path
           style="opacity:1;fill:#00ff00;fill-opacity:1;stroke:none;stroke-width:10.10000038;stroke-miterlimit:4;stroke-dasharray:none"
           d="m 4996.4995,503.5552 c 6.4047,-4.4847 15.232,-2.928 19.7172,3.4766 4.4841,6.4052 2.9279,15.2328 -3.4767,19.7172 -6.4042,4.4848 -15.2331,2.9278 -19.7174,-3.4766 -4.4843,-6.4051 -2.9278,-15.2324 3.4769,-19.7172 z"
           id="path3357-5-7-7-9-7-1-0-6-5-1-2-1-37-3-8"
           inkscape:connector-curvature="0"
           sodipodi:nodetypes="sssss" />
        <path
           style="opacity:1;fill:#00ff00;fill-opacity:1;stroke:none;stroke-width:10.10000038;stroke-miterlimit:4;stroke-dasharray:none"
           d="m 5217.5855,282.4692 c 6.4047,-4.4847 15.232,-2.928 19.7172,3.4766 4.4841,6.4052 2.9279,15.2328 -3.4767,19.7172 -6.4042,4.4848 -15.2331,2.9278 -19.7174,-3.4766 -4.4843,-6.4051 -2.9278,-15.2324 3.4769,-19.7172 z"
           id="path3357-5-7-7-9-7-1-0-6-5-1-2-1-37-3-83"
           inkscape:connector-curvature="0"
           sodipodi:nodetypes="sssss" />
        <path
           style="opacity:1;fill:#00ff00;fill-opacity:1;stroke:none;stroke-width:10.10000038;stroke-miterlimit:4;stroke-dasharray:none"
           d="m 4950.7856,282.4692 c 6.4047,-4.4847 15.232,-2.928 19.7172,3.4766 4.4841,6.4052 2.9279,15.2328 -3.4767,19.7172 -6.4042,4.4848 -15.2331,2.9278 -19.7174,-3.4766 -4.4843,-6.4051 -2.9278,-15.2324 3.4769,-19.7172 z"
           id="path3357-5-7-7-9-7-1-0-6-5-1-2-1-37-3-6"
           inkscape:connector-curvature="0"
           sodipodi:nodetypes="sssss" />
        <path
           style="display:inline;fill:none;fill-rule:evenodd;stroke:#00ff00;stroke-width:10.10000038;stroke-linecap:butt;stroke-linejoin:miter;stroke-miterlimit:4;stroke-dasharray:none;stroke-opacity:1"
           d="M 4295.0612,518.7494 4422.2241,391.5863"
           id="path4441-5-4-2-9-6-3"
           inkscape:connector-curvature="0"
           sodipodi:nodetypes="cc" />
        <path
           style="display:inline;opacity:1;fill:#00ff00;fill-opacity:1;stroke:none;stroke-width:10.10000038;stroke-miterlimit:4;stroke-dasharray:none"
           d="m 4414.104,379.9895 c 6.4047,-4.4848 15.232,-2.9281 19.7172,3.4765 4.4841,6.4052 2.9279,15.2328 -3.4767,19.7172 -6.4042,4.4848 -15.2331,2.9278 -19.7174,-3.4766 -4.4843,-6.405 -2.9278,-15.2324 3.4769,-19.7171 z"
           id="path3357-5-7-7-9-7-1-0-6-5-1-2-1-5-5-82-5-0"
           inkscape:connector-curvature="0"
           sodipodi:nodetypes="sssss" />
        <path
           style="display:inline;opacity:1;fill:#00ff00;fill-opacity:1;stroke:none;stroke-width:10.10000038;stroke-miterlimit:4;stroke-dasharray:none"
           d="m 4286.9411,507.1525 c 6.4047,-4.4847 15.232,-2.928 19.7172,3.4766 4.4841,6.4052 2.9279,15.2328 -3.4767,19.7172 -6.4042,4.4848 -15.2331,2.9278 -19.7174,-3.4766 -4.4843,-6.4051 -2.9278,-15.2324 3.4769,-19.7172 z"
           id="path3357-5-7-7-9-7-1-0-6-5-1-2-1-5-5-4-3-4"
           inkscape:connector-curvature="0"
           sodipodi:nodetypes="sssss" />
      </g>
    </g>
  </g>
</svg>
