<?xml version="1.0" encoding="UTF-8" standalone="no"?>
<!-- Created with Inkscape (http://www.inkscape.org/) -->

<svg
   xmlns:dc="http://purl.org/dc/elements/1.1/"
   xmlns:cc="http://creativecommons.org/ns#"
   xmlns:rdf="http://www.w3.org/1999/02/22-rdf-syntax-ns#"
   xmlns:svg="http://www.w3.org/2000/svg"
   xmlns="http://www.w3.org/2000/svg"
   xmlns:sodipodi="http://sodipodi.sourceforge.net/DTD/sodipodi-0.dtd"
   xmlns:inkscape="http://www.inkscape.org/namespaces/inkscape"
   width="49.913193mm"
   height="104.3389mm"
   viewBox="0 0 176.85777 369.70475"
   id="svg2"
   version="1.1"
   inkscape:version="0.91 r13725"
   sodipodi:docname="cropcircle.svg">
  <defs
     id="defs4" />
  <sodipodi:namedview
     id="base"
     pagecolor="#ffffff"
     bordercolor="#666666"
     borderopacity="1.0"
     inkscape:pageopacity="0.0"
     inkscape:pageshadow="2"
     inkscape:zoom="0.65393235"
     inkscape:cx="56.749041"
     inkscape:cy="23.579706"
     inkscape:document-units="px"
     inkscape:current-layer="layer1"
     showgrid="false"
     inkscape:window-width="1920"
     inkscape:window-height="1054"
     inkscape:window-x="0"
     inkscape:window-y="0"
     inkscape:window-maximized="1"
     inkscape:snap-bbox="true"
     inkscape:snap-smooth-nodes="true"
     inkscape:object-nodes="true"
     inkscape:snap-bbox-midpoints="true"
     inkscape:snap-object-midpoints="true"
     inkscape:object-paths="true"
     inkscape:snap-global="true"
     showguides="true"
     inkscape:guide-bbox="true"
     inkscape:bbox-paths="true"
     inkscape:snap-intersection-paths="true"
     inkscape:snap-center="true"
     fit-margin-top="0"
     fit-margin-left="0"
     fit-margin-right="0"
     fit-margin-bottom="0" />
  <metadata
     id="metadata7">
    <rdf:RDF>
      <cc:Work
         rdf:about="">
        <dc:format>image/svg+xml</dc:format>
        <dc:type
           rdf:resource="http://purl.org/dc/dcmitype/StillImage" />
        <dc:title></dc:title>
      </cc:Work>
    </rdf:RDF>
  </metadata>
  <g
     inkscape:groupmode="layer"
     id="layer2"
     inkscape:label="bg"
     style="display:inline"
     transform="translate(-292.70165,-176.22455)" />
  <g
     inkscape:label="Layer 1"
     inkscape:groupmode="layer"
     id="layer1"
     transform="translate(-292.70165,-176.22455)">
    <g
       id="g4003"
       transform="matrix(0.38692517,0,0,0.38692517,-1431.6494,770.85504)">
      <path
         sodipodi:nodetypes="csc"
         inkscape:connector-curvature="0"
         id="path4488-1-3-7-3"
         d="m 4670.3715,-1444.7194 c -2e-4,63.2654 51.2868,114.5522 114.5523,114.5523 63.2652,-1e-4 114.5516,-51.2869 114.552,-114.5521"
         style="display:inline;opacity:1;fill:none;fill-opacity:1;stroke:#00ff00;stroke-width:10.10000038;stroke-miterlimit:4;stroke-dasharray:none" />
      <path
         sodipodi:nodetypes="cc"
         inkscape:connector-curvature="0"
         id="path4441-5-4-2-9"
         d="m 4606.8182,-1080.6825 127.1629,-127.1631"
         style="display:inline;fill:none;fill-rule:evenodd;stroke:#00ff00;stroke-width:10.10000038;stroke-linecap:butt;stroke-linejoin:miter;stroke-miterlimit:4;stroke-dasharray:none;stroke-opacity:1" />
      <path
         sodipodi:nodetypes="csccscc"
         inkscape:connector-curvature="0"
         id="path4488-1-3-7-2"
         d="m 4899.4761,-1215.6148 c 2e-4,-63.2654 -51.2868,-114.5522 -114.5523,-114.5523 -63.2652,10e-5 -114.5516,51.2868 -114.552,114.5521 l 0.2788,351.19552 c 0,38.10929 -30.8935,69.00279 -69.0028,69.00279 -38.1091,0 -69.0026,-30.8936 -69.0026,-69.00269 0,-38.1092 30.8936,-69.0027 69.0027,-69.0027"
         style="display:inline;opacity:1;fill:none;fill-opacity:1;stroke:#00ff00;stroke-width:10.10000038;stroke-miterlimit:4;stroke-dasharray:none" />
      <circle
         r="208.98822"
         cy="-795.35406"
         cx="4670.5874"
         id="path3357-0-1-7-6-5"
         style="display:inline;opacity:1;fill:none;fill-opacity:1;stroke:#00ff00;stroke-width:10.10000038;stroke-miterlimit:4;stroke-dasharray:none" />
      <path
         sodipodi:nodetypes="ccscc"
         inkscape:connector-curvature="0"
         id="path4190-8-0-7"
         d="m 4779.3303,-973.17649 -108.7424,108.82001 c 38.109,-10e-5 69.0026,30.89349 69.0026,69.00259 0,38.1091 -30.8936,69.0026 -69.0027,69.0027 -38.1091,0 -69.0027,-30.8936 -69.0026,-69.0027"
         style="display:inline;fill:none;fill-rule:evenodd;stroke:#00ff00;stroke-width:10.10000038;stroke-linecap:butt;stroke-linejoin:round;stroke-miterlimit:4;stroke-dasharray:none;stroke-opacity:1" />
      <path
         inkscape:connector-curvature="0"
         id="path5089"
         d="m 4899.4758,-1522.6516 0,77.9324"
         style="display:inline;opacity:1;fill:none;fill-opacity:1;stroke:#00ff00;stroke-width:10.10000038;stroke-miterlimit:4;stroke-dasharray:none" />
      <path
         inkscape:connector-curvature="0"
         id="path4488-1-2-6-9-4"
         d="m 4670.3715,-1444.7194 0,-77.9322"
         style="display:inline;opacity:1;fill:none;fill-opacity:1;stroke:#00ff00;stroke-width:10.10000038;stroke-miterlimit:4;stroke-dasharray:none" />
      <path
         sodipodi:nodetypes="sssss"
         inkscape:connector-curvature="0"
         id="path3357-5-7-7-9-7-1-0-6-5-1-2-1-5-5"
         d="m 4662.4676,-806.95095 c 6.4047,-4.48475 15.232,-2.92806 19.7172,3.47656 4.4841,6.40522 2.9279,15.23281 -3.4767,19.7172 -6.4042,4.48483 -15.2331,2.92779 -19.7174,-3.47663 -4.4843,-6.40503 -2.9278,-15.23236 3.4769,-19.71713 z"
         style="display:inline;opacity:1;fill:#00ff00;fill-opacity:1;stroke:none;stroke-width:10.10000038;stroke-miterlimit:4;stroke-dasharray:none" />
      <path
         sodipodi:nodetypes="sssss"
         inkscape:connector-curvature="0"
         id="path3357-5-7-7-9-7-1-0-6-5-1-2-1-5-5-1"
         d="m 4593.5278,-945.01894 c 6.4047,-4.48475 15.232,-2.92806 19.7172,3.47656 4.4841,6.40522 2.9279,15.23281 -3.4767,19.7172 -6.4042,4.48483 -15.2331,2.92779 -19.7174,-3.47663 -4.4843,-6.40503 -2.9278,-15.23236 3.4769,-19.71713 z"
         style="display:inline;opacity:1;fill:#00ff00;fill-opacity:1;stroke:none;stroke-width:10.10000038;stroke-miterlimit:4;stroke-dasharray:none" />
      <path
         sodipodi:nodetypes="sssss"
         inkscape:connector-curvature="0"
         id="path3357-5-7-7-9-7-1-0-6-5-1-2-1-5-5-8"
         d="m 4771.2101,-984.77336 c 6.4047,-4.48475 15.232,-2.92806 19.7172,3.47656 4.4841,6.40522 2.9279,15.23281 -3.4767,19.7172 -6.4042,4.48483 -15.2331,2.92779 -19.7174,-3.47663 -4.4843,-6.40503 -2.9278,-15.23236 3.4769,-19.71713 z"
         style="display:inline;opacity:1;fill:#00ff00;fill-opacity:1;stroke:none;stroke-width:10.10000038;stroke-miterlimit:4;stroke-dasharray:none" />
      <path
         sodipodi:nodetypes="sssss"
         inkscape:connector-curvature="0"
         id="path3357-5-7-7-9-7-1-0-6-5-1-2-1-5-5-82"
         d="m 4725.861,-1219.4424 c 6.4047,-4.4848 15.232,-2.9281 19.7172,3.4765 4.4841,6.4052 2.9279,15.2328 -3.4767,19.7172 -6.4042,4.4849 -15.2331,2.9278 -19.7174,-3.4766 -4.4843,-6.405 -2.9278,-15.2324 3.4769,-19.7171 z"
         style="display:inline;opacity:1;fill:#00ff00;fill-opacity:1;stroke:none;stroke-width:10.10000038;stroke-miterlimit:4;stroke-dasharray:none" />
      <path
         sodipodi:nodetypes="sssss"
         inkscape:connector-curvature="0"
         id="path3357-5-7-7-9-7-1-0-6-5-1-2-1-5-5-4"
         d="m 4598.6981,-1092.2793 c 6.4047,-4.4848 15.232,-2.9281 19.7172,3.4765 4.4841,6.4052 2.9279,15.2328 -3.4767,19.7172 -6.4042,4.4848 -15.2331,2.9278 -19.7174,-3.4766 -4.4843,-6.405 -2.9278,-15.2324 3.4769,-19.7171 z"
         style="display:inline;opacity:1;fill:#00ff00;fill-opacity:1;stroke:none;stroke-width:10.10000038;stroke-miterlimit:4;stroke-dasharray:none" />
      <path
         sodipodi:nodetypes="sssss"
         inkscape:connector-curvature="0"
         id="path3357-5-7-7-9-7-1-0-6-5-1-2-1-5-5-2"
         d="m 4891.356,-1227.2117 c 6.4047,-4.4847 15.232,-2.928 19.7172,3.4766 4.4841,6.4052 2.9279,15.2328 -3.4767,19.7172 -6.4042,4.4848 -15.2331,2.9278 -19.7174,-3.4766 -4.4843,-6.4051 -2.9278,-15.2324 3.4769,-19.7172 z"
         style="display:inline;opacity:1;fill:#00ff00;fill-opacity:1;stroke:none;stroke-width:10.10000038;stroke-miterlimit:4;stroke-dasharray:none" />
      <path
         sodipodi:nodetypes="sssss"
         inkscape:connector-curvature="0"
         id="path3357-5-7-7-9-7-1-0-6-5-1-2-1-5-5-23"
         d="m 4891.3557,-1534.2485 c 6.4047,-4.4848 15.232,-2.9281 19.7172,3.4766 4.4841,6.4052 2.9279,15.2328 -3.4767,19.7172 -6.4042,4.4848 -15.2331,2.9277 -19.7174,-3.4767 -4.4843,-6.405 -2.9278,-15.2323 3.4769,-19.7171 z"
         style="display:inline;opacity:1;fill:#00ff00;fill-opacity:1;stroke:none;stroke-width:10.10000038;stroke-miterlimit:4;stroke-dasharray:none" />
      <path
         sodipodi:nodetypes="sssss"
         inkscape:connector-curvature="0"
         id="path3357-5-7-7-9-7-1-0-6-5-1-2-1-5-5-45"
         d="m 4662.2514,-1534.2485 c 6.4047,-4.4848 15.232,-2.9281 19.7172,3.4766 4.4841,6.4052 2.9279,15.2328 -3.4767,19.7172 -6.4042,4.4848 -15.2331,2.9277 -19.7174,-3.4767 -4.4843,-6.405 -2.9278,-15.2323 3.4769,-19.7171 z"
         style="display:inline;opacity:1;fill:#00ff00;fill-opacity:1;stroke:none;stroke-width:10.10000038;stroke-miterlimit:4;stroke-dasharray:none" />
      <path
         sodipodi:nodetypes="sssss"
         inkscape:connector-curvature="0"
         id="path3357-5-7-7-9-7-1-0-6-5-1-2-1-5-5-81"
         d="m 4662.4194,-1015.9389 c 6.4047,-4.4847 15.232,-2.928 19.7172,3.4766 4.4841,6.4052 2.9279,15.2328 -3.4767,19.71719 -6.4042,4.48483 -15.2331,2.92779 -19.7174,-3.47663 -4.4843,-6.40506 -2.9278,-15.23236 3.4769,-19.71716 z"
         style="display:inline;opacity:1;fill:#00ff00;fill-opacity:1;stroke:none;stroke-width:10.10000038;stroke-miterlimit:4;stroke-dasharray:none" />
      <path
         sodipodi:nodetypes="sssss"
         inkscape:connector-curvature="0"
         id="path3357-5-7-7-9-7-1-0-6-5-1-2-1-5-5-1-1"
         d="m 4593.5277,-807.01355 c 6.4047,-4.48475 15.232,-2.92806 19.7172,3.47656 4.4841,6.40522 2.9279,15.23281 -3.4767,19.7172 -6.4042,4.48483 -15.2331,2.92779 -19.7174,-3.47663 -4.4843,-6.40503 -2.9278,-15.23236 3.4769,-19.71713 z"
         style="display:inline;opacity:1;fill:#00ff00;fill-opacity:1;stroke:none;stroke-width:10.10000038;stroke-miterlimit:4;stroke-dasharray:none" />
    </g>
  </g>
</svg>
